<?xml version="1.0" standalone="no"?>
<!DOCTYPE svg PUBLIC "-//W3C//DTD SVG 20010904//EN"
 "http://www.w3.org/TR/2001/REC-SVG-20010904/DTD/svg10.dtd">
<svg version="1.0" xmlns="http://www.w3.org/2000/svg"
 width="507.000000pt" height="179.000000pt" viewBox="0 0 507.000000 179.000000"
 preserveAspectRatio="xMidYMid meet">

<g transform="translate(0.000000,179.000000) scale(0.100000,-0.100000)"
fill="#000000" stroke="none">
<path d="M3900 1302 c0 -25 -61 -32 -274 -32 -122 0 -226 -3 -229 -6 -3 -4 3
-18 13 -32 17 -22 20 -41 20 -149 0 -124 -7 -155 -39 -180 -10 -8 -12 -12 -4
-13 30 0 43 -57 43 -183 0 -108 -3 -127 -20 -149 -10 -14 -16 -28 -13 -32 3
-3 108 -6 233 -6 212 0 229 -1 253 -20 35 -28 39 -26 35 23 l-3 42 -212 3
-213 2 0 325 0 325 213 2 212 3 3 43 c2 25 -1 42 -7 42 -6 0 -11 -4 -11 -8z"/>
<path d="M4265 1265 c-125 -29 -185 -100 -185 -218 0 -86 31 -134 114 -178 38
-20 73 -44 78 -53 8 -15 11 -15 34 0 35 24 102 13 131 -21 32 -37 31 -89 -3
-120 -58 -53 -210 -38 -244 25 -6 11 -15 20 -20 20 -14 0 -50 -38 -50 -53 0
-19 47 -43 119 -62 81 -21 178 -8 228 31 43 33 59 90 41 147 -16 52 -58 77
-176 107 -173 43 -221 93 -192 199 15 55 61 106 116 127 57 22 158 13 233 -21
65 -30 66 -30 91 -5 26 26 25 40 -1 40 -11 0 -51 9 -87 19 -88 26 -165 31
-227 16z"/>
<path d="M403 1255 c-66 -47 2 -110 192 -177 83 -29 81 -30 -52 -12 -64 8
-105 -6 -124 -45 -8 -15 -23 -44 -33 -64 -17 -31 -18 -42 -8 -75 22 -74 90
-140 206 -201 74 -39 72 -37 52 -56 -42 -42 -24 -103 37 -128 90 -38 209 -24
294 33 31 21 56 30 84 30 50 0 116 33 131 66 10 20 9 32 -4 57 -9 18 -19 57
-21 89 -3 31 -17 80 -31 109 -14 29 -24 54 -23 55 1 1 63 -24 137 -57 186 -80
270 -98 270 -54 0 36 -132 94 -341 150 -126 33 -132 35 -190 89 -126 117 -306
196 -464 203 -72 4 -94 1 -112 -12z m187 -45 c46 -12 116 -36 155 -55 85 -41
178 -105 152 -105 -48 0 -334 93 -420 136 -89 46 -30 58 113 24z m29 -226 c23
-29 48 -101 38 -110 -15 -15 -177 91 -177 116 0 11 25 17 77 19 34 1 45 -4 62
-25z m89 20 c21 -4 32 -14 36 -30 4 -14 23 -43 44 -66 l37 -41 -37 6 c-31 5
-40 2 -52 -15 -20 -28 -36 -14 -36 30 0 20 -9 56 -20 80 -20 45 -20 45 28 36z
m167 -49 c106 -39 199 -114 180 -145 -12 -19 -39 -10 -115 40 -77 50 -164 130
-142 130 6 0 41 -11 77 -25z m135 0 c16 -19 1 -19 -24 0 -16 12 -17 15 -4 15
8 0 21 -7 28 -15z m-540 -36 c46 -44 145 -94 246 -125 38 -12 77 -34 109 -61
28 -24 73 -55 100 -69 l50 -26 -85 6 c-172 11 -406 132 -457 235 -12 23 -19
51 -16 61 3 11 6 20 8 20 1 0 21 -19 45 -41z m640 -150 c0 -20 -15 -26 -24
-10 -8 13 4 42 15 35 5 -3 9 -14 9 -25z m-86 -50 c35 -41 33 -49 -11 -37 -37
9 -123 54 -123 63 0 3 24 5 54 5 48 0 57 -3 80 -31z m129 -64 c8 -18 -34 -51
-74 -60 -44 -10 -46 1 -4 21 20 9 42 25 48 36 14 22 23 23 30 3z m-361 -50
c35 -8 87 -22 117 -31 62 -18 58 -24 -34 -53 -75 -23 -175 -14 -212 21 -27 26
-28 35 -6 60 20 22 52 23 135 3z"/>
<path d="M1829 1244 c19 -24 21 -40 21 -164 0 -120 -2 -140 -19 -161 -19 -24
-19 -25 0 -48 16 -20 19 -41 19 -152 0 -120 -10 -179 -32 -179 -4 0 -8 -4 -8
-10 0 -5 15 -10 34 -10 71 0 66 -26 66 375 0 402 5 375 -67 375 l-34 0 20 -26z"/>
<path d="M1945 1260 c-6 -9 223 -462 243 -482 4 -4 64 102 134 235 90 171 124
244 115 249 -7 4 -32 8 -56 8 -37 0 -42 -2 -31 -15 17 -21 10 -43 -79 -227
l-79 -163 -82 170 c-63 131 -81 177 -78 202 4 33 4 33 -38 33 -24 0 -46 -5
-49 -10z"/>
<path d="M2485 1257 c-3 -6 -4 -174 -3 -372 l3 -360 43 -3 c46 -3 51 2 25 31
-15 16 -19 42 -21 151 -3 129 -3 134 21 162 l25 29 -24 28 c-23 27 -24 35 -24
157 0 124 1 130 26 159 l26 31 -46 0 c-28 0 -49 -5 -51 -13z"/>
<path d="M2885 1258 c-32 -11 -91 -52 -113 -78 -28 -33 -51 -99 -57 -165 -4
-42 -14 -80 -25 -95 -17 -25 -17 -27 0 -47 10 -13 19 -48 24 -92 3 -39 13 -89
22 -111 20 -50 99 -122 152 -138 50 -15 153 -15 204 0 49 15 118 74 143 124
11 22 28 49 39 61 17 20 17 23 3 28 -8 4 -27 5 -42 3 -22 -2 -31 -12 -46 -52
-35 -94 -94 -131 -203 -128 -91 2 -144 33 -180 105 -27 53 -30 68 -34 190 -5
148 7 228 41 279 48 71 131 99 233 78 71 -15 117 -55 142 -123 16 -43 24 -53
47 -55 15 -2 34 -1 42 2 14 6 14 8 1 24 -9 9 -25 36 -37 59 -29 58 -84 109
-139 127 -51 18 -171 20 -217 4z"/>
<path d="M3944 1226 c-6 -37 1 -60 17 -51 12 8 12 85 -1 85 -5 0 -12 -15 -16
-34z"/>
<path d="M2570 1211 c-13 -25 -13 -241 0 -261 7 -10 10 21 10 97 0 104 2 113
25 141 21 25 23 31 9 36 -25 10 -33 7 -44 -13z"/>
<path d="M2060 1213 c0 -5 4 -14 9 -21 6 -10 10 -9 14 7 3 14 0 21 -9 21 -8 0
-14 -3 -14 -7z"/>
<path d="M2915 1185 c-93 -33 -120 -108 -113 -319 3 -115 7 -137 28 -181 34
-67 74 -89 159 -89 92 0 150 34 172 102 13 41 3 52 -48 52 -37 0 -38 -2 -21
-30 10 -15 9 -22 -6 -39 -39 -43 -120 -50 -173 -16 -55 36 -75 150 -35 204 14
20 18 32 11 37 -46 28 -40 157 10 207 50 51 146 46 191 -8 11 -13 11 -21 2
-36 -7 -10 -12 -22 -12 -25 0 -7 79 1 87 9 3 3 0 22 -7 41 -28 85 -142 127
-245 91z"/>
<path d="M4260 1189 c-65 -27 -108 -101 -96 -164 8 -43 39 -67 113 -89 162
-48 193 -60 222 -84 22 -19 34 -40 39 -72 16 -88 -13 -149 -89 -188 -39 -21
-55 -23 -144 -20 -90 3 -106 7 -160 36 -59 32 -60 32 -84 14 -14 -10 -26 -22
-28 -28 -1 -5 44 -24 102 -43 96 -31 112 -33 202 -29 74 3 108 9 138 25 105
55 148 160 113 276 -18 59 -67 103 -136 123 -31 9 -69 27 -84 41 -25 24 -28
24 -49 9 -32 -22 -52 -20 -77 7 -29 31 -28 78 1 113 44 51 186 42 204 -12 l8
-25 28 21 c39 31 35 54 -15 74 -51 21 -173 30 -208 15z"/>
<path d="M3520 1050 l0 -140 169 0 c185 0 181 -1 181 61 0 34 -4 35 -37 9 -22
-17 -41 -20 -144 -20 l-119 0 0 90 0 90 148 0 c134 0 150 -2 170 -20 30 -28
34 -26 30 23 l-3 42 -197 3 -198 2 0 -140z"/>
<path d="M2327 961 c-68 -131 -113 -229 -108 -234 13 -13 66 -4 63 11 -1 7 22
58 50 115 l53 102 3 -185 c2 -172 1 -186 -18 -212 -11 -15 -20 -30 -20 -33 0
-11 78 -4 89 9 8 9 11 105 9 332 l-3 319 -118 -224z"/>
<path d="M4588 1162 c-32 -19 -35 -27 -11 -36 18 -7 63 20 71 42 5 17 -29 14
-60 -6z"/>
<path d="M1940 851 c0 -350 -3 -331 61 -331 34 0 35 2 12 37 -15 23 -19 56
-21 210 -2 101 0 183 5 183 14 0 107 -196 99 -208 -4 -7 3 -14 18 -18 29 -7
60 -2 59 9 -2 12 -224 437 -229 437 -2 0 -4 -144 -4 -319z"/>
<path d="M3946 1108 c-4 -22 -2 -37 9 -47 13 -14 15 -11 15 26 0 51 -15 64
-24 21z"/>
<path d="M4305 1122 c-11 -2 -28 -11 -37 -20 -19 -16 -24 -67 -8 -77 6 -3 10
0 10 9 0 28 59 66 103 66 24 0 37 4 32 9 -12 11 -74 19 -100 13z"/>
<path d="M2929 1107 c-34 -26 -56 -107 -40 -148 10 -27 15 -19 25 41 9 47 51
89 99 97 26 4 34 9 25 14 -19 13 -91 10 -109 -4z"/>
<path d="M4514 1091 c-13 -16 -19 -33 -15 -44 6 -17 8 -17 34 3 28 22 36 55
15 62 -7 3 -22 -7 -34 -21z"/>
<path d="M3600 1050 c0 -33 4 -60 10 -60 6 0 10 23 10 50 l0 50 126 0 c81 0
123 4 119 10 -4 6 -60 10 -136 10 l-129 0 0 -60z"/>
<path d="M3151 1016 c-31 -17 -11 -30 35 -22 30 6 49 26 25 26 -5 0 -15 2 -23
5 -7 2 -24 -2 -37 -9z"/>
<path d="M3275 1015 l-30 -13 27 -7 c15 -4 36 -4 48 0 17 5 19 10 9 21 -13 16
-15 16 -54 -1z"/>
<path d="M3892 922 c-12 -34 4 -75 19 -51 12 18 11 79 0 79 -5 0 -13 -13 -19
-28z"/>
<path d="M3520 740 l0 -140 198 2 197 3 3 44 3 43 -27 -21 c-24 -19 -39 -21
-175 -21 l-149 0 0 90 0 90 123 0 c110 0 126 -2 145 -21 18 -16 23 -17 28 -5
3 8 4 27 2 43 l-3 28 -172 3 -173 2 0 -140z"/>
<path d="M2576 848 c-12 -17 -16 -49 -16 -138 0 -63 5 -122 10 -130 7 -10 10
20 10 93 0 108 15 167 41 167 8 0 7 5 -1 15 -17 20 -26 19 -44 -7z"/>
<path d="M2899 853 c-16 -19 -15 -105 1 -131 10 -15 11 -14 6 7 -7 34 3 76 24
99 14 14 16 22 7 31 -15 15 -22 14 -38 -6z"/>
<path d="M2021 723 c0 -65 4 -127 9 -138 5 -13 9 29 9 112 1 78 -3 134 -9 138
-6 4 -10 -36 -9 -112z"/>
<path d="M2335 801 c-11 -25 -18 -55 -17 -68 3 -19 -3 -26 -28 -35 -20 -6 -28
-14 -22 -20 14 -14 68 -6 64 10 -1 7 5 26 13 43 9 17 15 48 13 72 l-3 42 -20
-44z"/>
<path d="M3896 800 c-6 -34 2 -63 15 -54 12 7 12 71 0 78 -5 3 -11 -8 -15 -24z"/>
<path d="M3608 804 c-12 -11 -10 -124 2 -124 6 0 10 23 10 50 l0 50 102 0 c80
0 99 3 90 12 -14 14 -193 24 -204 12z"/>
<path d="M4317 794 c-3 -4 -2 -15 4 -26 10 -18 12 -18 28 -4 10 9 28 16 42 16
19 0 21 2 9 10 -17 11 -73 13 -83 4z"/>
<path d="M4631 744 c-2 -96 -53 -173 -146 -222 -46 -24 -60 -27 -168 -27 -114
0 -117 -1 -75 -13 67 -20 232 -11 283 15 100 53 148 161 115 263 -7 21 -8 19
-9 -16z"/>
<path d="M2162 693 c-20 -8 -3 -23 28 -23 33 0 48 15 24 24 -18 7 -33 7 -52
-1z"/>
<path d="M3262 648 c-59 -104 -132 -149 -256 -156 -92 -6 -73 -19 30 -21 115
-2 210 53 254 146 12 27 29 56 38 66 14 16 13 17 -10 17 -21 0 -32 -11 -56
-52z"/>
<path d="M3944 611 c-12 -30 -1 -66 17 -56 11 7 12 85 1 85 -4 0 -12 -13 -18
-29z"/>
<path d="M3947 483 c-6 -38 -2 -53 14 -53 11 0 12 77 0 84 -5 3 -11 -11 -14
-31z"/>
<path d="M1888 497 c-16 -6 -28 -14 -28 -19 0 -11 72 -10 90 2 13 9 13 11 0
20 -18 12 -26 11 -62 -3z"/>
<path d="M2428 497 c-40 -15 -35 -27 11 -27 42 0 63 16 40 31 -16 10 -16 10
-51 -4z"/>
<path d="M2015 491 c-25 -5 -27 -8 -12 -14 31 -12 79 -8 75 6 -6 15 -23 17
-63 8z"/>
<path d="M2557 493 c-40 -6 -23 -23 24 -23 28 0 39 4 37 13 -5 14 -20 16 -61
10z"/>
<path d="M3445 480 c4 -6 87 -10 216 -10 138 0 208 3 204 10 -4 6 -87 10 -216
10 -138 0 -208 -3 -204 -10z"/>
</g>
</svg>
